<?xml version="1.0" encoding="UTF-8"?>
<svg version="1.1" xmlns="http://www.w3.org/2000/svg" width="40" height="40">
<path d="M0 0 C0.495 3.465 0.495 3.465 1 7 C-0.24853673 7.79397239 -1.49890043 8.58507217 -2.75 9.375 C-3.44609375 9.81585938 -4.1421875 10.25671875 -4.859375 10.7109375 C-7 12 -7 12 -9.0625 12.65625 C-12.31082979 14.90912389 -13.01770247 18.48469251 -14.25 22.125 C-14.518125 22.87910156 -14.78625 23.63320313 -15.0625 24.41015625 C-15.72129341 26.26889479 -16.36237797 28.13389286 -17 30 C-18.65 29.67 -20.3 29.34 -22 29 C-21.67 25.37 -21.34 21.74 -21 18 C-22.588125 18.845625 -24.17625 19.69125 -25.8125 20.5625 C-28.51953125 22.00390625 -28.51953125 22.00390625 -31 23 C-31.99 22.67 -32.98 22.34 -34 22 C-34.66666667 20.33333333 -35.33333333 18.66666667 -36 17 C-36.99 16.67 -37.98 16.34 -39 16 C-38.67 14.35 -38.34 12.7 -38 11 C-33.74433453 9.83936396 -30.3164922 10.23826608 -26 11 C-26 10.34 -26 9.68 -26 9 C-26.8971875 8.566875 -26.8971875 8.566875 -27.8125 8.125 C-30 7 -30 7 -33 5 C-32.67 3.68 -32.34 2.36 -32 1 C-27.7923685 1.44762037 -24.56478015 2.17092847 -20.6875 3.875 C-17.68241422 4.957036 -16.46230333 5.1641107 -13.4140625 4.08203125 C-11.69436026 3.16020888 -9.9916026 2.20597516 -8.30859375 1.21875 C-5.43319021 -0.29922953 -3.20259582 -0.42139419 0 0 Z M-10.73046875 5.1875 C-11.61669922 5.63867188 -12.50292969 6.08984375 -13.41601562 6.5546875 C-15.24833409 7.5102306 -17.0765656 8.47365626 -18.90039062 9.4453125 C-25.16015559 12.60909263 -29.99745016 13.68105307 -37 13 C-34.64046906 15.35953094 -33.22104383 15.49141413 -30 16 C-30.66 17.32 -31.32 18.64 -32 20 C-27.76570244 18.68938409 -23.92592596 17.05643741 -20 15 C-20 14.01 -20 13.02 -20 12 C-19.34 12 -18.68 12 -18 12 C-18.33 16.95 -18.66 21.9 -19 27 C-16.36345132 23.04517697 -15.23599733 18.77479734 -13.85546875 14.2734375 C-13.29017857 12.49780208 -12.65018728 10.74633635 -12 9 C-11.34 8.67 -10.68 8.34 -10 8 C-9.67 8.66 -9.34 9.32 -9 10 C-6.36 8.68 -3.72 7.36 -1 6 C-1 5.01 -1 4.02 -1 3 C-4.92383737 2.7566343 -7.2717919 3.35321957 -10.73046875 5.1875 Z M-29 4 C-26.63707344 6.52588702 -25.33537489 7.88820837 -22 9 C-21.34 8.34 -20.68 7.68 -20 7 C-22.97 6.01 -25.94 5.02 -29 4 Z " fill="#585858" transform="translate(39,5)"/>
<path d="M0 0 C0 0.99 0 1.98 0 3 C-1.19625 3.33 -2.3925 3.66 -3.625 4 C-7.89909433 6.03818021 -9.07809521 8.78738487 -10.70849609 13.00390625 C-11.8762214 16.31762397 -12.96885103 19.64095412 -14 23 C-15.65 22.67 -17.3 22.34 -19 22 C-18.96519531 20.84371094 -18.96519531 20.84371094 -18.9296875 19.6640625 C-18.91164063 18.66117188 -18.89359375 17.65828125 -18.875 16.625 C-18.85179687 15.62726562 -18.82859375 14.62953125 -18.8046875 13.6015625 C-18.72783152 10.83737827 -18.72783152 10.83737827 -21 9 C-19.68 8.67 -18.36 8.34 -17 8 C-17 7.01 -17 6.02 -17 5 C-16.34 5 -15.68 5 -15 5 C-15 8.96 -15 12.92 -15 17 C-13.35 12.05 -11.7 7.1 -10 2 C-8.68 2 -7.36 2 -6 2 C-1.75 0 -1.75 0 0 0 Z " fill="#555555" transform="translate(36,12)"/>
<path d="M0 0 C0.66 0 1.32 0 2 0 C2 0.66 2 1.32 2 2 C4.31 2.66 6.62 3.32 9 4 C9 4.99 9 5.98 9 7 C9.5775 6.649375 10.155 6.29875 10.75 5.9375 C13.39786506 4.83422289 14.33185326 5.19843491 17 6 C15.56988027 6.86646667 14.13059381 7.71781829 12.6875 8.5625 C11.88699219 9.03816406 11.08648437 9.51382812 10.26171875 10.00390625 C8 11 8 11 5 10 C4.33333333 8.33333333 3.66666667 6.66666667 3 5 C2.01 4.67 1.02 4.34 0 4 C0 2.68 0 1.36 0 0 Z " fill="#606060" transform="translate(0,17)"/>
<path d="M0 0 C0 0.99 0 1.98 0 3 C-1.4562545 3.67119549 -2.91507867 4.33681807 -4.375 5 C-5.59316406 5.556875 -5.59316406 5.556875 -6.8359375 6.125 C-9 7 -9 7 -11 7 C-10.34 5.02 -9.68 3.04 -9 1 C-8.01 1.33 -7.02 1.66 -6 2 C-1.6 0 -1.6 0 0 0 Z " fill="#717171" transform="translate(36,12)"/>
<path d="M0 0 C0.33 0.66 0.66 1.32 1 2 C1.66 2.33 2.32 2.66 3 3 C-0.3146667 5.02907167 -2.4315979 5.12742133 -6.25 4.625 C-7.14203125 4.51414062 -8.0340625 4.40328125 -8.953125 4.2890625 C-9.62859375 4.19367187 -10.3040625 4.09828125 -11 4 C-11 3.01 -11 2.02 -11 1 C-7.37 1.33 -3.74 1.66 0 2 C0 1.34 0 0.68 0 0 Z " fill="#676767" transform="translate(13,14)"/>
<path d="M0 0 C2.31 0.33 4.62 0.66 7 1 C7 1.66 7 2.32 7 3 C6.01 3.33 5.02 3.66 4 4 C4.66 4.66 5.32 5.32 6 6 C5.01 6.33 4.02 6.66 3 7 C0.8125 5.5625 0.8125 5.5625 -1 4 C-0.67 2.68 -0.34 1.36 0 0 Z " fill="#676767" transform="translate(7,6)"/>
<path d="M0 0 C-1.45537568 0.83848804 -2.91440373 1.67063934 -4.375 2.5 C-5.59316406 3.19609375 -5.59316406 3.19609375 -6.8359375 3.90625 C-9 5 -9 5 -11 5 C-11 4.34 -11 3.68 -11 3 C-4.03571429 -1.41964286 -4.03571429 -1.41964286 0 0 Z " fill="#4B4B4B" transform="translate(17,23)"/>
<path d="M0 0 C1.46726798 3.81489674 0.43336419 6.29011622 -1 10 C-1.66 10 -2.32 10 -3 10 C-2.25 2.25 -2.25 2.25 0 0 Z " fill="#575757" transform="translate(26,18)"/>
<path d="M0 0 C0.66 0 1.32 0 2 0 C2 2.64 2 5.28 2 8 C1.01 8.33 0.02 8.66 -1 9 C-1.33 8.01 -1.66 7.02 -2 6 C-2.66 5.34 -3.32 4.68 -4 4 C-2.68 3.67 -1.36 3.34 0 3 C0 2.01 0 1.02 0 0 Z " fill="#7D7D7D" transform="translate(19,17)"/>
<path d="M0 0 C0.66 0 1.32 0 2 0 C2 1.65 2 3.3 2 5 C0.02 5.99 0.02 5.99 -2 7 C-2 6.01 -2 5.02 -2 4 C-1.34 4 -0.68 4 0 4 C0 2.68 0 1.36 0 0 Z " fill="#505050" transform="translate(38,7)"/>
<path d="M0 0 C1.98 0 3.96 0 6 0 C5.67 0.99 5.34 1.98 5 3 C2.03 2.505 2.03 2.505 -1 2 C-0.67 1.34 -0.34 0.68 0 0 Z " fill="#6E6E6E" transform="translate(33,5)"/>
</svg>
