<?xml version="1.0" encoding="UTF-8"?>
<svg version="1.1" xmlns="http://www.w3.org/2000/svg" width="512" height="512">
<path d="M0 0 C73.26 0 146.52 0 222 0 C222 5.94 222 11.88 222 18 C216.39 18 210.78 18 205 18 C205 23.28 205 28.56 205 34 C233.38 34 261.76 34 291 34 C291 39.94 291 45.88 291 52 C285.39 52 279.78 52 274 52 C274 164.2 274 276.4 274 392 C287.53 392 301.06 392 315 392 C315 356.36 315 320.72 315 284 C308.73 288.62 302.46 293.24 296 298 C290.24390244 292.24390244 290.24390244 292.24390244 287.6875 288.875 C287.17574219 288.21242188 286.66398437 287.54984375 286.13671875 286.8671875 C285 285 285 285 285 282 C286.68066406 280.421875 286.68066406 280.421875 289.015625 278.75 C289.85480469 278.1415625 290.69398438 277.533125 291.55859375 276.90625 C292.44675781 276.2771875 293.33492188 275.648125 294.25 275 C295.12269531 274.3709375 295.99539063 273.741875 296.89453125 273.09375 C298.52702671 271.91735632 300.16247828 270.74504665 301.80175781 269.578125 C303.88949085 268.07933487 305.94980242 266.54960864 308 265 C300.49857234 258.75373248 292.85186838 252.79640545 285 247 C285.60110283 242.99264783 287.66602028 240.44530629 290.0625 237.25 C290.79597656 236.26515625 291.52945312 235.2803125 292.28515625 234.265625 C292.85105469 233.51796875 293.41695313 232.7703125 294 232 C297.25425296 232.61096383 299.27251085 233.71684299 301.890625 235.72265625 C302.8501709 236.44980835 302.8501709 236.44980835 303.82910156 237.19165039 C304.62799805 237.80903076 305.42689453 238.42641113 306.25 239.0625 C308.8075 241.021875 311.365 242.98125 314 245 C314.33 237.41 314.66 229.82 315 222 C320.94 222 326.88 222 333 222 C333 229.92 333 237.84 333 246 C339.27 241.38 345.54 236.76 352 232 C356.24979591 234.12489795 357.57516893 235.66929106 360.3125 239.4375 C361.38951172 240.88962891 361.38951172 240.88962891 362.48828125 242.37109375 C362.98714844 243.23863281 363.48601562 244.10617187 364 245 C362.81864829 248.54405514 361.83196195 249.11909841 358.8515625 251.25 C357.59085937 252.16265625 357.59085937 252.16265625 356.3046875 253.09375 C355.42039062 253.7228125 354.53609375 254.351875 353.625 255 C351.88637942 256.24771595 350.14933511 257.497632 348.4140625 258.75 C347.6401416 259.30171875 346.8662207 259.8534375 346.06884766 260.421875 C344.21052061 261.83941407 342.60170284 263.30310222 341 265 C341.51908936 265.4031543 342.03817871 265.80630859 342.57299805 266.22167969 C344.94478708 268.06408223 347.31614696 269.90703634 349.6875 271.75 C350.50412109 272.38421875 351.32074219 273.0184375 352.16210938 273.671875 C356.12916963 276.75558176 360.08874013 279.8455012 364 283 C362.37815499 286.58513106 360.20743761 289.58992323 357.875 292.75 C357.15054687 293.73484375 356.42609375 294.7196875 355.6796875 295.734375 C355.12539063 296.48203125 354.57109375 297.2296875 354 298 C347 294 347 294 334 284 C333.67 319.64 333.34 355.28 333 392 C344.22 392 355.44 392 367 392 C367 397.94 367 403.88 367 410 C198.04 410 29.08 410 -145 410 C-145 404.06 -145 398.12 -145 392 C-133.78 392 -122.56 392 -111 392 C-111.33 356.36 -111.66 320.72 -112 284 C-118.27 288.62 -124.54 293.24 -131 298 C-134.17729325 294.82270675 -136.74084058 292.21605594 -139.3125 288.6875 C-139.82425781 287.99011719 -140.33601562 287.29273438 -140.86328125 286.57421875 C-141.23839844 286.05472656 -141.61351562 285.53523438 -142 285 C-140.50336614 281.24746436 -138.41760077 279.50471383 -135.2109375 277.109375 C-134.26992187 276.40039062 -133.32890625 275.69140625 -132.359375 274.9609375 C-130.88210937 273.86652344 -130.88210937 273.86652344 -129.375 272.75 C-128.38242188 272.00492187 -127.38984375 271.25984375 -126.3671875 270.4921875 C-123.91667343 268.65430195 -121.4608873 266.82395922 -119 265 C-121.68129793 262.21187746 -124.42363901 259.82599316 -127.546875 257.546875 C-128.39121094 256.928125 -129.23554688 256.309375 -130.10546875 255.671875 C-130.97816406 255.03765625 -131.85085937 254.4034375 -132.75 253.75 C-133.63816406 253.1003125 -134.52632812 252.450625 -135.44140625 251.78125 C-137.62535726 250.18438259 -139.81159644 248.59075704 -142 247 C-140.4680371 242.93165495 -138.6544433 240.0497298 -135.875 236.6875 C-135.15054688 235.80449219 -134.42609375 234.92148437 -133.6796875 234.01171875 C-133.12539062 233.34785156 -132.57109375 232.68398438 -132 232 C-126.81012264 233.61735823 -122.9309572 236.8568064 -118.6875 240.125 C-116.150625 242.06375 -113.61375 244.0025 -111 246 C-111 238.08 -111 230.16 -111 222 C-105.06 222 -99.12 222 -93 222 C-92.505 233.385 -92.505 233.385 -92 245 C-86.53419539 240.72958569 -86.53419539 240.72958569 -81.08081055 236.44335938 C-80.39801025 235.91548828 -79.71520996 235.38761719 -79.01171875 234.84375 C-78.31522217 234.29912109 -77.61872559 233.75449219 -76.90112305 233.19335938 C-75 232 -75 232 -72 232 C-70.2592248 233.8828793 -68.76270849 235.69806104 -67.25 237.75 C-66.82589844 238.28882813 -66.40179688 238.82765625 -65.96484375 239.3828125 C-62.96948836 243.38312425 -62.96948836 243.38312425 -63.09643555 245.94970703 C-64.36545472 248.82925932 -66.15707687 249.97542344 -68.69140625 251.8203125 C-69.63564453 252.52027344 -70.57988281 253.22023438 -71.55273438 253.94140625 C-72.54595703 254.66199219 -73.53917969 255.38257813 -74.5625 256.125 C-76.52628572 257.55943948 -78.48615801 258.99925741 -80.44140625 260.4453125 C-81.31482666 261.07969238 -82.18824707 261.71407227 -83.08813477 262.36767578 C-83.71905029 262.90634277 -84.34996582 263.44500977 -85 264 C-85 264.66 -85 265.32 -85 266 C-83.24210911 267.57884273 -83.24210911 267.57884273 -80.94921875 269.1875 C-80.10552734 269.80367188 -79.26183594 270.41984375 -78.39257812 271.0546875 C-77.49990234 271.69664062 -76.60722656 272.33859375 -75.6875 273 C-74.80642578 273.64195312 -73.92535156 274.28390625 -73.01757812 274.9453125 C-69.70956692 277.35022406 -66.40322705 279.73118196 -63 282 C-63.47887665 286.76264597 -65.49488642 289.22641652 -68.5625 292.8125 C-69.80193359 294.27623047 -69.80193359 294.27623047 -71.06640625 295.76953125 C-71.70449219 296.50558594 -72.34257813 297.24164063 -73 298 C-79.83871229 293.54217273 -86.38609754 288.81011088 -93 284 C-93 319.64 -93 355.28 -93 392 C-79.47 392 -65.94 392 -52 392 C-52 279.8 -52 167.6 -52 52 C-57.61 52 -63.22 52 -69 52 C-69 46.06 -69 40.12 -69 34 C-40.62 34 -12.24 34 17 34 C17 28.72 17 23.44 17 18 C11.39 18 5.78 18 0 18 C0 12.06 0 6.12 0 0 Z M35 18 C35 141.42 35 264.84 35 392 C42.92 392 50.84 392 59 392 C59.04898438 388.22046875 59.09796875 384.4409375 59.1484375 380.546875 C59.20243408 376.88977061 59.25974686 373.23273222 59.31738281 369.57568359 C59.35568566 367.03243924 59.3905362 364.48914048 59.421875 361.94580078 C59.46749662 358.29179423 59.52549678 354.63816273 59.5859375 350.984375 C59.59748871 349.84570984 59.60903992 348.70704468 59.62094116 347.53387451 C59.64081085 346.47307678 59.66068054 345.41227905 59.68115234 344.31933594 C59.69447601 343.38667908 59.70779968 342.45402222 59.7215271 341.49310303 C60.01541064 338.86203209 60.58007029 337.22296582 62 335 C65.34930135 333.32534933 69.12459151 333.84361645 72.80834961 333.83886719 C73.72065842 333.83390228 74.63296722 333.82893738 75.57292175 333.82382202 C78.59940334 333.80918278 81.62583254 333.80239602 84.65234375 333.796875 C86.74980166 333.7911257 88.84725954 333.78536794 90.94471741 333.77960205 C95.34555304 333.76908752 99.74637037 333.76324758 104.1472168 333.75976562 C109.79458182 333.75427515 115.44170642 333.73023713 121.08899593 333.70179367 C125.42205011 333.68319967 129.75504596 333.67796346 134.08813667 333.67642975 C136.17061238 333.67339616 138.25308689 333.665344 140.33552361 333.65224457 C143.24462234 333.63524915 146.15312806 333.63704818 149.06225586 333.64355469 C149.92729736 333.6343399 150.79233887 333.62512512 151.68359375 333.6156311 C157.58741572 333.65713675 157.58741572 333.65713675 159.6822443 335.39796829 C162.09251563 338.32820118 162.14356871 340.36942771 162.20532227 344.09228516 C162.2352401 345.68370834 162.2352401 345.68370834 162.26576233 347.30728149 C162.28247482 348.45626923 162.29918732 349.60525696 162.31640625 350.7890625 C162.33718735 351.96262299 162.35796844 353.13618347 162.37937927 354.3453064 C162.44491983 358.10514304 162.50378076 361.86505122 162.5625 365.625 C162.60568092 368.16927832 162.64929507 370.71354933 162.69335938 373.2578125 C162.80142339 379.50513599 162.90046374 385.75251145 163 392 C170.92 392 178.84 392 187 392 C187 268.58 187 145.16 187 18 C136.84 18 86.68 18 35 18 Z M-34 52 C-34 164.2 -34 276.4 -34 392 C-17.17 392 -0.34 392 17 392 C17 279.8 17 167.6 17 52 C0.17 52 -16.66 52 -34 52 Z M205 52 C205 164.2 205 276.4 205 392 C221.83 392 238.66 392 256 392 C256 279.8 256 167.6 256 52 C239.17 52 222.34 52 205 52 Z M77 351 C77 364.53 77 378.06 77 392 C85.25 392 93.5 392 102 392 C102 378.47 102 364.94 102 351 C93.75 351 85.5 351 77 351 Z M120 351 C120 364.53 120 378.06 120 392 C128.25 392 136.5 392 145 392 C145 378.47 145 364.94 145 351 C136.75 351 128.5 351 120 351 Z " fill="#000000" transform="translate(145,51)"/>
<path d="M0 0 C5.94 0 11.88 0 18 0 C18 8.91 18 17.82 18 27 C12.06 27 6.12 27 0 27 C0 18.09 0 9.18 0 0 Z " fill="#000000" transform="translate(366,298)"/>
<path d="M0 0 C5.94 0 11.88 0 18 0 C18 8.91 18 17.82 18 27 C12.06 27 6.12 27 0 27 C0 18.09 0 9.18 0 0 Z " fill="#000000" transform="translate(298,298)"/>
<path d="M0 0 C5.94 0 11.88 0 18 0 C18 8.91 18 17.82 18 27 C12.06 27 6.12 27 0 27 C0 18.09 0 9.18 0 0 Z " fill="#000000" transform="translate(264,298)"/>
<path d="M0 0 C5.94 0 11.88 0 18 0 C18 8.91 18 17.82 18 27 C12.06 27 6.12 27 0 27 C0 18.09 0 9.18 0 0 Z " fill="#000000" transform="translate(230,298)"/>
<path d="M0 0 C5.94 0 11.88 0 18 0 C18 8.91 18 17.82 18 27 C12.06 27 6.12 27 0 27 C0 18.09 0 9.18 0 0 Z " fill="#000000" transform="translate(196,298)"/>
<path d="M0 0 C5.94 0 11.88 0 18 0 C18 8.91 18 17.82 18 27 C12.06 27 6.12 27 0 27 C0 18.09 0 9.18 0 0 Z " fill="#000000" transform="translate(128,298)"/>
<path d="M0 0 C5.94 0 11.88 0 18 0 C18 8.91 18 17.82 18 27 C12.06 27 6.12 27 0 27 C0 18.09 0 9.18 0 0 Z " fill="#000000" transform="translate(366,170)"/>
<path d="M0 0 C5.94 0 11.88 0 18 0 C18 8.91 18 17.82 18 27 C12.06 27 6.12 27 0 27 C0 18.09 0 9.18 0 0 Z " fill="#000000" transform="translate(298,170)"/>
<path d="M0 0 C5.94 0 11.88 0 18 0 C18 8.91 18 17.82 18 27 C12.06 27 6.12 27 0 27 C0 18.09 0 9.18 0 0 Z " fill="#000000" transform="translate(264,170)"/>
<path d="M0 0 C5.94 0 11.88 0 18 0 C18 8.91 18 17.82 18 27 C12.06 27 6.12 27 0 27 C0 18.09 0 9.18 0 0 Z " fill="#000000" transform="translate(230,170)"/>
<path d="M0 0 C5.94 0 11.88 0 18 0 C18 8.91 18 17.82 18 27 C12.06 27 6.12 27 0 27 C0 18.09 0 9.18 0 0 Z " fill="#000000" transform="translate(196,170)"/>
<path d="M0 0 C5.94 0 11.88 0 18 0 C18 8.91 18 17.82 18 27 C12.06 27 6.12 27 0 27 C0 18.09 0 9.18 0 0 Z " fill="#000000" transform="translate(128,170)"/>
<path d="M0 0 C5.94 0 11.88 0 18 0 C18 8.58 18 17.16 18 26 C12.06 26 6.12 26 0 26 C0 17.42 0 8.84 0 0 Z " fill="#000000" transform="translate(366,384)"/>
<path d="M0 0 C5.94 0 11.88 0 18 0 C18 8.58 18 17.16 18 26 C12.06 26 6.12 26 0 26 C0 17.42 0 8.84 0 0 Z " fill="#000000" transform="translate(128,384)"/>
<path d="M0 0 C5.94 0 11.88 0 18 0 C18 8.58 18 17.16 18 26 C12.06 26 6.12 26 0 26 C0 17.42 0 8.84 0 0 Z " fill="#000000" transform="translate(366,341)"/>
<path d="M0 0 C5.94 0 11.88 0 18 0 C18 8.58 18 17.16 18 26 C12.06 26 6.12 26 0 26 C0 17.42 0 8.84 0 0 Z " fill="#000000" transform="translate(298,341)"/>
<path d="M0 0 C5.94 0 11.88 0 18 0 C18 8.58 18 17.16 18 26 C12.06 26 6.12 26 0 26 C0 17.42 0 8.84 0 0 Z " fill="#000000" transform="translate(264,341)"/>
<path d="M0 0 C5.94 0 11.88 0 18 0 C18 8.58 18 17.16 18 26 C12.06 26 6.12 26 0 26 C0 17.42 0 8.84 0 0 Z " fill="#000000" transform="translate(230,341)"/>
<path d="M0 0 C5.94 0 11.88 0 18 0 C18 8.58 18 17.16 18 26 C12.06 26 6.12 26 0 26 C0 17.42 0 8.84 0 0 Z " fill="#000000" transform="translate(196,341)"/>
<path d="M0 0 C5.94 0 11.88 0 18 0 C18 8.58 18 17.16 18 26 C12.06 26 6.12 26 0 26 C0 17.42 0 8.84 0 0 Z " fill="#000000" transform="translate(128,341)"/>
<path d="M0 0 C5.94 0 11.88 0 18 0 C18 8.58 18 17.16 18 26 C12.06 26 6.12 26 0 26 C0 17.42 0 8.84 0 0 Z " fill="#000000" transform="translate(366,256)"/>
<path d="M0 0 C5.94 0 11.88 0 18 0 C18 8.58 18 17.16 18 26 C12.06 26 6.12 26 0 26 C0 17.42 0 8.84 0 0 Z " fill="#000000" transform="translate(298,256)"/>
<path d="M0 0 C5.94 0 11.88 0 18 0 C18 8.58 18 17.16 18 26 C12.06 26 6.12 26 0 26 C0 17.42 0 8.84 0 0 Z " fill="#000000" transform="translate(264,256)"/>
<path d="M0 0 C5.94 0 11.88 0 18 0 C18 8.58 18 17.16 18 26 C12.06 26 6.12 26 0 26 C0 17.42 0 8.84 0 0 Z " fill="#000000" transform="translate(230,256)"/>
<path d="M0 0 C5.94 0 11.88 0 18 0 C18 8.58 18 17.16 18 26 C12.06 26 6.12 26 0 26 C0 17.42 0 8.84 0 0 Z " fill="#000000" transform="translate(196,256)"/>
<path d="M0 0 C5.94 0 11.88 0 18 0 C18 8.58 18 17.16 18 26 C12.06 26 6.12 26 0 26 C0 17.42 0 8.84 0 0 Z " fill="#000000" transform="translate(128,256)"/>
<path d="M0 0 C5.94 0 11.88 0 18 0 C18 8.58 18 17.16 18 26 C12.06 26 6.12 26 0 26 C0 17.42 0 8.84 0 0 Z " fill="#000000" transform="translate(366,213)"/>
<path d="M0 0 C5.94 0 11.88 0 18 0 C18 8.58 18 17.16 18 26 C12.06 26 6.12 26 0 26 C0 17.42 0 8.84 0 0 Z " fill="#000000" transform="translate(298,213)"/>
<path d="M0 0 C5.94 0 11.88 0 18 0 C18 8.58 18 17.16 18 26 C12.06 26 6.12 26 0 26 C0 17.42 0 8.84 0 0 Z " fill="#000000" transform="translate(264,213)"/>
<path d="M0 0 C5.94 0 11.88 0 18 0 C18 8.58 18 17.16 18 26 C12.06 26 6.12 26 0 26 C0 17.42 0 8.84 0 0 Z " fill="#000000" transform="translate(230,213)"/>
<path d="M0 0 C5.94 0 11.88 0 18 0 C18 8.58 18 17.16 18 26 C12.06 26 6.12 26 0 26 C0 17.42 0 8.84 0 0 Z " fill="#000000" transform="translate(196,213)"/>
<path d="M0 0 C5.94 0 11.88 0 18 0 C18 8.58 18 17.16 18 26 C12.06 26 6.12 26 0 26 C0 17.42 0 8.84 0 0 Z " fill="#000000" transform="translate(128,213)"/>
<path d="M0 0 C5.94 0 11.88 0 18 0 C18 8.58 18 17.16 18 26 C12.06 26 6.12 26 0 26 C0 17.42 0 8.84 0 0 Z " fill="#000000" transform="translate(366,128)"/>
<path d="M0 0 C5.94 0 11.88 0 18 0 C18 8.58 18 17.16 18 26 C12.06 26 6.12 26 0 26 C0 17.42 0 8.84 0 0 Z " fill="#000000" transform="translate(298,128)"/>
<path d="M0 0 C5.94 0 11.88 0 18 0 C18 8.58 18 17.16 18 26 C12.06 26 6.12 26 0 26 C0 17.42 0 8.84 0 0 Z " fill="#000000" transform="translate(264,128)"/>
<path d="M0 0 C5.94 0 11.88 0 18 0 C18 8.58 18 17.16 18 26 C12.06 26 6.12 26 0 26 C0 17.42 0 8.84 0 0 Z " fill="#000000" transform="translate(230,128)"/>
<path d="M0 0 C5.94 0 11.88 0 18 0 C18 8.58 18 17.16 18 26 C12.06 26 6.12 26 0 26 C0 17.42 0 8.84 0 0 Z " fill="#000000" transform="translate(196,128)"/>
<path d="M0 0 C5.94 0 11.88 0 18 0 C18 8.58 18 17.16 18 26 C12.06 26 6.12 26 0 26 C0 17.42 0 8.84 0 0 Z " fill="#000000" transform="translate(128,128)"/>
<path d="M0 0 C5.94 0 11.88 0 18 0 C18 8.58 18 17.16 18 26 C12.06 26 6.12 26 0 26 C0 17.42 0 8.84 0 0 Z " fill="#000000" transform="translate(298,85)"/>
<path d="M0 0 C5.94 0 11.88 0 18 0 C18 8.58 18 17.16 18 26 C12.06 26 6.12 26 0 26 C0 17.42 0 8.84 0 0 Z " fill="#000000" transform="translate(264,85)"/>
<path d="M0 0 C5.94 0 11.88 0 18 0 C18 8.58 18 17.16 18 26 C12.06 26 6.12 26 0 26 C0 17.42 0 8.84 0 0 Z " fill="#000000" transform="translate(230,85)"/>
<path d="M0 0 C5.94 0 11.88 0 18 0 C18 8.58 18 17.16 18 26 C12.06 26 6.12 26 0 26 C0 17.42 0 8.84 0 0 Z " fill="#000000" transform="translate(196,85)"/>
</svg>
